<?xml version="1.0" standalone="no"?><!DOCTYPE svg PUBLIC "-//W3C//DTD SVG 1.1//EN" "http://www.w3.org/Graphics/SVG/1.1/DTD/svg11.dtd"><svg t="1771218295681" class="icon" viewBox="0 0 1024 1024" version="1.1" xmlns="http://www.w3.org/2000/svg" p-id="5392" xmlns:xlink="http://www.w3.org/1999/xlink" width="23" height="23"><path d="M897.616162 420.589899H651.571717C746.989899 68.39596 585.890909 50.424242 585.890909 50.424242c-68.266667 0-54.044444 53.915152-59.216162 62.965657 0 172.218182-182.949495 307.2-182.949494 307.2V908.929293c0 48.226263 65.680808 65.551515 91.410101 65.551515h369.777777c34.779798 0 63.094949-91.280808 63.09495-91.280808C959.547475 572.250505 959.547475 479.676768 959.547475 479.676768c0-64.258586-61.931313-59.086869-61.931313-59.086869z m0 0M242.747475 420.719192h-147.39394c-30.383838 0-30.90101 29.866667-30.90101 29.866667l30.383839 492.60606c0 31.288889 31.418182 31.288889 31.418181 31.288889h127.482829c26.505051 0 26.375758-20.686869 26.375757-20.686869V458.084848c0-37.882828-37.365657-37.365657-37.365656-37.365656z m0 0" fill="" p-id="5393"></path></svg>